<?xml version="1.0" encoding="UTF-8"?>
<svg xmlns="http://www.w3.org/2000/svg" viewBox="0 0 80 80">
  <defs>
    <linearGradient id="bgGradient" x1="0%" y1="0%" x2="100%" y2="100%">
      <stop offset="0%" style="stop-color:#9333EA"/>
      <stop offset="100%" style="stop-color:#6B21A8"/>
    </linearGradient>
    <linearGradient id="bookGradient" x1="0%" y1="0%" x2="100%" y2="0%">
      <stop offset="0%" style="stop-color:#FFFFFF;stop-opacity:0.3"/>
      <stop offset="50%" style="stop-color:#FFFFFF;stop-opacity:0.15"/>
      <stop offset="100%" style="stop-color:#FFFFFF;stop-opacity:0.3"/>
    </linearGradient>
  </defs>

  <!-- Background with gradient -->
  <rect x="0" y="0" width="80" height="80" fill="url(#bgGradient)"/>

  <!-- Open Book -->
  <path d="M20 52 L40 48 L60 52 L60 68 L40 64 L20 68 Z"
        fill="url(#bookGradient)" 
        stroke="white" 
        stroke-width="2.5"
        stroke-linejoin="round"/>

  <!-- Main Branch - Emerging from book -->
  <path d="M40 48 C40 42, 35 38, 35 32 C35 26, 40 22, 40 16" 
        fill="none" 
        stroke="white" 
        stroke-width="3.5" 
        stroke-linecap="round"/>

  <!-- Left Branch -->
  <path d="M35 32 C30 32, 25 28, 22 24" 
        fill="none" 
        stroke="white" 
        stroke-width="3"
        stroke-linecap="round"/>

  <!-- Right Branch -->
  <path d="M35 32 C40 32, 50 28, 54 24" 
        fill="none" 
        stroke="white" 
        stroke-width="3"
        stroke-linecap="round"/>

  <!-- Commit Nodes -->
  <circle cx="40" cy="16" r="3.5" fill="white"/>
  <circle cx="35" cy="32" r="3.5" fill="white"/>
  <circle cx="40" cy="48" r="3.5" fill="white"/>

  <!-- Story Elements -->
  <circle cx="22" cy="24" r="5" fill="white" opacity="0.95"/>
  <circle cx="54" cy="24" r="5" fill="white" opacity="0.95"/>

  <!-- Book Pages -->
  <path d="M40 48 L40 64" 
        stroke="white" 
        stroke-width="1.5"
        stroke-dasharray="2 3"
        opacity="0.7"/>

  <!-- Magical Sparkles -->
  <circle cx="30" cy="20" r="1.2" fill="white" opacity="0.9"/>
  <circle cx="48" cy="20" r="1.2" fill="white" opacity="0.9"/>
  <circle cx="44" cy="36" r="1.2" fill="white" opacity="0.9"/>
  <circle cx="32" cy="40" r="1.2" fill="white" opacity="0.9"/>
</svg> 