<svg xmlns="http://www.w3.org/2000/svg" width="24" height="24" viewBox="0 0 24 24" fill="none" stroke="currentColor" stroke-width="2" stroke-linecap="round" stroke-linejoin="round">
  <path d="M21.49 11.95c-.18-1.39-1.76-.96-1.76-.96l-13.26-.01c-.62 0-1.05.46-1.05 1.03 0 .57.43 1.03 1.05 1.03h13.26s1.58.43 1.76-.96M19.47 15.98c-.18-1.39-1.76-.96-1.76-.96l-9.22-.01c-.62 0-1.05.46-1.05 1.03 0 .57.43 1.03 1.05 1.03h9.22s1.58.43 1.76-.96M17.45 20c-.18-1.39-1.76-.96-1.76-.96l-5.18-.01c-.62 0-1.05.46-1.05 1.03 0 .57.43 1.03 1.05 1.03h5.18s1.58.43 1.76-.96M7.49 4.97c.18-1.39 1.76-.96 1.76-.96h13.26c.62 0 1.05.46 1.05 1.03 0 .57-.43 1.03-1.05 1.03H9.25s-1.58.43-1.76-.96M9.51 8.99c.18-1.39 1.76-.96 1.76-.96h9.22c.62 0 1.05.46 1.05 1.03 0 .57-.43 1.03-1.05 1.03h-9.22s-1.58.43-1.76-.96"/>
</svg> 